<?xml version="1.0" encoding="UTF-8"?>
<svg height="16px" viewBox="0 0 16 16" width="16px" xmlns="http://www.w3.org/2000/svg">
    <path d="m 10.289062 -0.0507812 c -2.863281 0.0429687 -6.085937 1.7695312 -8.203124 4.6640622 c -2.945313 4.03125 -2.675782 8.851563 0.605468 10.722657 c 1.308594 0.75 2.910156 0.914062 4.542969 0.589843 v 0.007813 c 0.007813 -0.003906 0.019531 -0.003906 0.03125 -0.003906 c -0.011719 -0.015626 -0.007813 -0.03125 0.035156 -0.039063 c 0.015625 -0.003906 0.007813 0 0.023438 -0.003906 c 0.011719 0 0.027343 -0.003907 0.039062 -0.003907 s 0.023438 -0.003906 0.035157 -0.007812 c 0.027343 -0.007812 0.050781 -0.011719 0.078124 -0.011719 h 0.003907 c 0.003906 -0.003906 0.011719 -0.003906 0.015625 -0.007812 c 0.023437 -0.011719 0.046875 -0.023438 0.070312 -0.035157 c 0.019532 -0.003906 0.035156 -0.011718 0.050782 -0.019531 c 0.011718 -0.007812 0.027343 -0.011719 0.035156 -0.019531 c 0.015625 -0.007812 0.03125 -0.015625 0.046875 -0.019531 c 0.023437 -0.007813 0.046875 -0.015625 0.070312 -0.023438 c 0.019531 -0.003906 0.039063 -0.003906 0.058594 -0.007812 c 0.019531 -0.003907 0.039063 -0.007813 0.058594 -0.015625 c 0.015625 -0.003906 0.035156 -0.011719 0.050781 -0.019532 c 0.027344 -0.011718 0.050781 -0.023437 0.074219 -0.039062 c 0.03125 -0.015625 0.0625 -0.027344 0.09375 -0.042969 c 0.027343 -0.011719 0.0625 -0.023437 0.09375 -0.027343 c 0.015625 -0.003907 0.027343 -0.003907 0.039062 -0.011719 c 0.027344 -0.015625 0.058594 -0.027344 0.089844 -0.039063 c 0.039063 -0.015625 0.082031 -0.03125 0.121094 -0.042968 c 0.042969 -0.015626 0.085937 -0.027344 0.132812 -0.039063 c 0.035157 -0.007813 0.074219 -0.015625 0.109375 -0.023437 c 0.03125 -0.007813 0.0625 -0.019532 0.09375 -0.023438 c 0.019532 0 0.035156 -0.007812 0.054688 -0.015625 c 0.023437 -0.011719 0.050781 -0.027344 0.074218 -0.042969 c 0.027344 -0.019531 0.054688 -0.039062 0.085938 -0.058594 c 0.042969 -0.023437 0.085938 -0.042968 0.132812 -0.058593 c 0.054688 -0.019531 0.105469 -0.042969 0.160157 -0.0625 c 0.058593 -0.019531 0.121093 -0.042969 0.183593 -0.058594 c 0.070313 -0.019531 0.140626 -0.042969 0.210938 -0.0625 c 0.042969 -0.015625 0.085938 -0.027344 0.128906 -0.039063 c 1.5625 -0.800781 3.035156 -2.023437 4.183594 -3.59375 c 2.945312 -4.03125 2.675781 -8.847656 -0.605469 -10.722656 c -0.921875 -0.523437 -1.984375 -0.7617185 -3.105469 -0.7460935 z m -0.828124 2.4765622 c 0.128906 -0.007812 0.261718 -0.007812 0.386718 0 c 0.683594 0.023438 1.328125 0.195313 1.898438 0.523438 c 2.289062 1.304687 2.476562 4.609375 0.421875 7.421875 c -2.054688 2.8125 -5.542969 4.019531 -7.832031 2.710937 c -2.285157 -1.304687 -2.472657 -4.609375 -0.417969 -7.417969 c 1.445312 -1.980468 3.597656 -3.164062 5.542969 -3.238281 z m 0.128906 12.816407 c -0.019532 0.007812 -0.039063 0.011718 -0.058594 0.015624 c -0.015625 0.003907 -0.03125 0.011719 -0.050781 0.015626 c 0.039062 -0.007813 0.074219 -0.019532 0.109375 -0.03125 z m -1.484375 0.550781 s 0 0 -0.003907 0 c 0 0 -0.003906 0.003906 -0.003906 0.003906 h 0.039063 c -0.011719 0 -0.019531 -0.003906 -0.03125 -0.003906 z m -0.410157 0.15625 c -0.003906 0.003906 -0.007812 0.003906 -0.015624 0.007812 c 0.011718 -0.003906 0.019531 -0.003906 0.03125 -0.007812 c -0.003907 0.003906 -0.011719 0 -0.015626 0 z m 0.277344 0.96875 c -0.003906 0.003906 -0.011718 0.003906 -0.015625 0.003906 c 0 0.007813 0.003907 0.011719 0.007813 0.019531 c 0.003906 -0.007812 0.007812 -0.015625 0.011718 -0.023437 z m -0.035156 4.378906 v 0.011719 c 0 -0.003906 0.003906 0 0.003906 -0.003906 c 0 -0.003907 0 -0.003907 -0.003906 -0.007813 z m 0 0"/>
    <g fill="none" stroke="#000000">
        <path d="m 6.335938 15.578125 l 9.683593 -0.042969"/>
        <path d="m 15.515625 15.054688 l 0.015625 -9.65625"/>
        <path d="m 9.921875 15.03125 c 0.078125 -0.023438 0.25 -0.117188 0.5 -0.261719 c 1.882813 -1.101562 3.484375 -2.796875 4.5 -4.769531 l 0.09375 -0.179688 l -0.003906 2.605469 c 0 1.429688 -0.003907 2.605469 -0.007813 2.605469 c -0.003906 0.003906 -1.4375 0.011719 -4.023437 0.023438 l -1.132813 0.003906 z m 0 0"/>
        <path d="m 11.6875 14.542969 c 0 -0.003907 0.0625 -0.046875 0.128906 -0.101563 c 0.710938 -0.53125 1.410156 -1.191406 2.015625 -1.910156 c 0.191407 -0.226562 0.472657 -0.585938 0.636719 -0.816406 l 0.039062 -0.058594 v 2.878906 l -0.957031 0.003906 c -1.554687 0.007813 -1.871093 0.007813 -1.863281 0.003907 z m 0 0"/>
        <path d="m 13.175781 13.957031 c 0.046875 -0.042969 0.1875 -0.183593 0.3125 -0.308593 c 0.191407 -0.191407 0.292969 -0.300782 0.492188 -0.515626 l 0.027343 -0.03125 v 0.933594 h -0.914062 z m 0 0"/>
    </g>
</svg>
